<svg width="48" height="60" viewBox="0 0 48 60" fill="none" xmlns="http://www.w3.org/2000/svg">
<path d="M41 18L40.68 18.06L30 22.2L18 18L6.72 21.8C6.3 21.94 6 22.3 6 22.76V53C6 53.56 6.44 54 7 54L7.32 53.94L18 49.8L30 54L41.28 50.2C41.7 50.06 42 49.7 42 49.24V19C42 18.44 41.56 18 41 18ZM30 50L18 45.78V22L30 26.22V50Z" fill="#4285F4"/>
<path d="M25 2C21.13 2 18 5.13 18 9C18 14.25 25 22 25 22C25 22 32 14.25 32 9C32 5.13 28.87 2 25 2ZM25 11.5C23.62 11.5 22.5 10.38 22.5 9C22.5 7.62 23.62 6.5 25 6.5C26.38 6.5 27.5 7.62 27.5 9C27.5 10.38 26.38 11.5 25 11.5Z" fill="#4285F4"/>
</svg>
