<svg width="41" height="51" viewBox="0 0 41 51" fill="none" xmlns="http://www.w3.org/2000/svg">
<path d="M20.3333 0L0 7.625V23.1038C0 35.9392 8.66708 47.9104 20.3333 50.8333C31.9996 47.9104 40.6667 35.9392 40.6667 23.1038V7.625L20.3333 0ZM35.5833 23.1038C35.5833 33.2704 29.1021 42.6746 20.3333 45.5467C11.5646 42.6746 5.08333 33.2958 5.08333 23.1038V11.1579L20.3333 5.43917L35.5833 11.1579V23.1038Z" fill="#4285F4"/>
<path d="M20.8327 10.75C13.0127 10.75 6.66602 17.0966 6.66602 24.9166C6.66602 32.7366 13.0127 39.0833 20.8327 39.0833C28.6527 39.0833 34.9994 32.7366 34.9994 24.9166C34.9994 17.0966 28.6527 10.75 20.8327 10.75ZM13.8485 33.8133C14.4577 32.5383 18.1693 31.2916 20.8327 31.2916C23.496 31.2916 27.2219 32.5383 27.8169 33.8133C25.8902 35.3433 23.4677 36.25 20.8327 36.25C18.1977 36.25 15.7752 35.3433 13.8485 33.8133ZM29.8427 31.7591C27.8169 29.2941 22.901 28.4583 20.8327 28.4583C18.7643 28.4583 13.8485 29.2941 11.8227 31.7591C10.3777 29.8608 9.49935 27.495 9.49935 24.9166C9.49935 18.6691 14.5852 13.5833 20.8327 13.5833C27.0802 13.5833 32.166 18.6691 32.166 24.9166C32.166 27.495 31.2877 29.8608 29.8427 31.7591V31.7591ZM20.8327 16.4166C18.0843 16.4166 15.8743 18.6266 15.8743 21.375C15.8743 24.1233 18.0843 26.3333 20.8327 26.3333C23.581 26.3333 25.791 24.1233 25.791 21.375C25.791 18.6266 23.581 16.4166 20.8327 16.4166ZM20.8327 23.5C19.6568 23.5 18.7077 22.5508 18.7077 21.375C18.7077 20.1991 19.6568 19.25 20.8327 19.25C22.0085 19.25 22.9577 20.1991 22.9577 21.375C22.9577 22.5508 22.0085 23.5 20.8327 23.5Z" fill="#4285F4"/>
</svg>
