<svg width="428" height="267" viewBox="0 0 428 267" fill="none" xmlns="http://www.w3.org/2000/svg">
<path d="M215.384 0.0839233H297.965V35.3803H215.384V0.0839233Z" fill="#E5E4DF"/>
<path d="M220.497 35.3802H208.592V23.6427H220.497V35.3802ZM220.497 0H211.191C209.766 0 208.592 1.17376 208.592 2.59903V11.7375H220.497V0ZM286.228 35.3802H298.133V23.6427H286.228V35.3802ZM286.228 11.8214H298.133V2.68286C298.133 1.25759 296.959 0.0838445 295.534 0.0838445H286.228V11.8214V11.8214Z" fill="#2B3B47"/>
<path d="M428 160.972V196.1C428 211.694 415.34 224.354 399.746 224.354H6.53947C2.93438 224.354 0 221.42 0 217.815V194.591C0 190.986 2.93438 188.052 6.53947 188.052C10.1446 188.052 9.55769 185.117 9.55769 181.512C9.55769 166.84 10.5638 149.402 24.0619 143.365C24.0619 143.365 59.2744 119.303 96.2476 118.297L134.059 51.6451C140.682 39.9076 153.175 32.6974 166.673 32.6974H324.71C340.22 32.6974 354.473 41.5844 361.264 55.5017L392.536 119.555L417.101 138.503C423.976 143.952 428 152.252 428 160.972V160.972ZM220.498 11.8214H208.592V23.5589H220.498V11.8214ZM286.228 23.5589H298.133V11.8214H286.228V23.5589Z" fill="#FFB636"/>
<path d="M45.1057 217.144C45.1057 184.447 71.599 157.953 104.296 157.953C136.994 157.953 163.487 184.447 163.487 217.144V224.354H45.1057V217.144V217.144ZM261.914 224.27H380.295V217.06C380.295 184.363 353.802 157.87 321.105 157.87C288.408 157.87 261.914 184.363 261.914 217.06V224.27V224.27Z" fill="#E08820"/>
<path d="M153.342 218.402C153.342 244.895 131.879 266.274 105.47 266.274C79.0605 266.274 57.5977 244.811 57.5977 218.402C57.5977 191.992 79.0605 170.529 105.47 170.529C131.879 170.529 153.342 191.992 153.342 218.402ZM322.362 170.529C295.869 170.529 274.49 191.992 274.49 218.402C274.49 244.811 295.953 266.274 322.362 266.274C348.772 266.274 370.235 244.811 370.235 218.402C370.235 191.992 348.772 170.529 322.362 170.529Z" fill="#2B3B47"/>
<path d="M137.077 111.758L355.311 112.345C359.755 112.345 362.689 107.65 360.761 103.626L343.574 68.413C339.13 59.2745 329.656 53.4058 319.512 53.4058H173.715C165.247 53.4058 157.367 57.9331 153.175 65.311L131.879 102.787C129.616 106.811 132.466 111.758 137.077 111.758V111.758Z" fill="white"/>
<path d="M231.9 25.9902H230.726C229.971 25.9902 229.301 25.4034 229.301 24.565V13.7497C229.301 12.9951 228.714 12.3244 227.875 12.3244H226.031C225.276 12.3244 224.606 11.7375 224.606 10.8991V10.6476C224.606 9.89307 225.193 9.22235 226.031 9.22235H236.511C237.349 9.22235 238.02 9.97691 237.936 10.8153V11.0668C237.852 11.7375 237.265 12.2406 236.511 12.2406H234.666C233.912 12.2406 233.241 12.8274 233.241 13.6658V24.4811C233.241 25.4034 232.654 25.9902 231.9 25.9902V25.9902Z" fill="#2B3B47"/>
<path d="M242.631 23.4751L242.296 24.9004C242.128 25.4873 241.541 25.9903 240.954 25.9903H239.781C238.858 25.9903 238.188 25.0681 238.439 24.1458L242.631 10.3123C242.799 9.72547 243.386 9.30627 243.973 9.30627H246.739C247.326 9.30627 247.913 9.72547 248.081 10.3123L252.273 24.1458C252.524 25.0681 251.854 25.9903 250.931 25.9903H249.674C249.003 25.9903 248.5 25.5711 248.332 24.9004L247.997 23.4751C247.829 22.8882 247.242 22.3852 246.656 22.3852H244.056C243.302 22.4691 242.715 22.8882 242.631 23.4751V23.4751ZM245.23 19.5347C246.153 19.5347 246.823 18.6963 246.572 17.774L245.23 12.1568L243.889 17.774C243.721 18.6963 244.392 19.5347 245.23 19.5347Z" fill="#2B3B47"/>
<path d="M259.818 10.2284L260.657 12.0729C261.16 13.1628 262.669 13.1628 263.172 12.0729L264.094 10.2284C264.346 9.7254 264.849 9.47388 265.352 9.47388H266.274C267.364 9.47388 268.035 10.6476 267.448 11.5699L264.597 16.4325C264.346 16.8517 264.346 17.3548 264.597 17.774L267.951 24.0619C268.454 24.9842 267.783 26.1579 266.693 26.1579H265.603C265.016 26.1579 264.597 25.8225 264.346 25.3195L263.088 22.6367C262.585 21.5467 261.076 21.5467 260.573 22.6367L259.315 25.3195C259.064 25.8225 258.561 26.1579 258.058 26.1579H257.052C255.962 26.1579 255.291 25.068 255.794 24.1458L259.064 18.0255C259.315 17.6063 259.315 17.1033 259.064 16.6841L256.213 11.6537C255.71 10.7315 256.381 9.55772 257.471 9.55772H258.477C259.064 9.39004 259.567 9.7254 259.818 10.2284V10.2284Z" fill="#2B3B47"/>
<path d="M279.94 12.3245H279.269C278.514 12.3245 277.844 12.9114 277.844 13.7498V21.7145C277.844 22.4691 278.431 23.1398 279.269 23.1398H279.94C280.694 23.1398 281.365 23.7266 281.365 24.565V24.7327C281.365 25.4873 280.778 26.158 279.94 26.158H271.891C271.137 26.158 270.466 25.5711 270.466 24.7327V24.565C270.466 23.8105 271.053 23.1398 271.891 23.1398H272.562C273.316 23.1398 273.987 22.5529 273.987 21.7145V13.6659C273.987 12.9114 273.4 12.2407 272.562 12.2407H271.891C271.137 12.2407 270.466 11.6538 270.466 10.8154V10.7315C270.466 9.97699 271.053 9.30627 271.891 9.30627H279.94C280.694 9.30627 281.365 9.89315 281.365 10.7315V10.8154C281.365 11.6538 280.694 12.3245 279.94 12.3245V12.3245Z" fill="#2B3B47"/>
<path d="M256.046 38.9015H279.437V124.082H256.046V38.9015Z" fill="#FFB636"/>
<path d="M136.91 218.402C136.91 235.756 122.825 249.758 105.554 249.758C88.2828 249.758 74.1978 235.673 74.1978 218.402C74.1978 201.047 88.2828 187.046 105.554 187.046C122.825 187.046 136.91 201.047 136.91 218.402ZM322.362 187.046C305.008 187.046 291.006 201.131 291.006 218.402C291.006 235.756 305.091 249.758 322.362 249.758C339.717 249.758 353.718 235.673 353.718 218.402C353.718 201.047 339.633 187.046 322.362 187.046Z" fill="#9BA5A8"/>
<path d="M116.453 218.402C116.453 224.438 111.506 229.384 105.47 229.384C99.4333 229.384 94.4868 224.438 94.4868 218.402C94.4868 212.365 99.4333 207.419 105.47 207.419C111.506 207.419 116.453 212.365 116.453 218.402ZM322.362 207.419C316.326 207.419 311.379 212.365 311.379 218.402C311.379 224.438 316.326 229.384 322.362 229.384C328.399 229.384 333.345 224.438 333.345 218.402C333.345 212.365 328.399 207.419 322.362 207.419Z" fill="#E5E4DF"/>
<path d="M427.916 186.375H421.461C414.502 186.375 410.142 180.674 410.142 173.715C410.142 166.756 414.502 161.055 421.461 161.055H427.916V186.375ZM9.30617 184.614H16.6002C23.5589 184.614 27.9185 178.913 27.9185 171.955C27.9185 164.996 23.5589 159.295 16.6002 159.295H11.6537C9.05466 164.493 9.30617 184.614 9.30617 184.614V184.614Z" fill="#FF473E"/>
<path d="M172.374 97.4214V113.77C172.374 118.549 165.75 121.316 160.972 118.633C157.618 116.788 154.181 114.441 151.749 112.009H135.233C130.873 112.009 128.274 107.231 130.538 103.625L147.054 76.0423L154.097 97.2537C156.109 95.5769 158.456 94.0678 160.804 92.6425C165.583 89.792 172.374 92.6425 172.374 97.4214V97.4214ZM359.419 112.345C363.025 112.345 365.456 108.488 363.863 105.218L340.891 58.3522C339.466 55.5017 336.531 53.6572 333.345 53.6572H322.362V112.512L359.419 112.345V112.345Z" fill="#2B3B47"/>
</svg>
